<?xml version="1.0" encoding="utf-8"?>
<!-- Generator: Adobe Illustrator 19.2.1, SVG Export Plug-In . SVG Version: 6.00 Build 0)  -->
<svg version="1.1" id="Layer_1" xmlns="http://www.w3.org/2000/svg" xmlns:xlink="http://www.w3.org/1999/xlink" x="0px" y="0px"
	 viewBox="0 0 20 20" enable-background="new 0 0 20 20" xml:space="preserve" width="16" height="16">
<g>
	<polygon fill="#FF580E" points="10.4,10.5 9.7,10.5 9.7,4.5 14,4.5 14,5.2 10.4,5.2 	"/>
	<g>
		<rect x="7.9" y="10.2" fill="#FF580E" width="5.5" height="0.7"/>
	</g>
	<polygon fill="#FF580E" points="13.9,16.5 9.9,16.5 9.9,10.6 10.5,10.6 10.5,15.9 13.9,15.9 	"/>
	<path fill="#2473E4" d="M20.1,5.4c0,0.5-0.3,0.9-0.7,0.9h-6.6c-0.4,0-0.7-0.4-0.7-0.9V4.1c0-0.5,0.3-0.9,0.7-0.9h6.6
		c0.4,0,0.7,0.4,0.7,0.9V5.4z"/>
	<path fill="#2473E4" d="M20.1,11.2c0,0.5-0.3,0.9-0.7,0.9h-6.6c-0.4,0-0.7-0.4-0.7-0.9V9.9c0-0.5,0.3-0.9,0.7-0.9h6.6
		c0.4,0,0.7,0.4,0.7,0.9V11.2z"/>
	<path fill="#2473E4" d="M20.1,16.8c0,0.5-0.3,0.9-0.7,0.9h-6.6c-0.4,0-0.7-0.4-0.7-0.9v-1.3c0-0.5,0.3-0.9,0.7-0.9h6.6
		c0.4,0,0.7,0.4,0.7,0.9V16.8z"/>
	<path fill="#2473E4" d="M8.1,11.2c0,0.5-0.3,0.9-0.7,0.9H0.8c-0.4,0-0.7-0.4-0.7-0.9V9.9C0.1,9.4,0.4,9,0.8,9h6.6
		c0.4,0,0.7,0.4,0.7,0.9V11.2z"/>
</g>
</svg>
